<svg width="64" height="64" viewBox="0 0 64 64" fill="none" xmlns="http://www.w3.org/2000/svg">
<path d="M53 23C53 21.343 51.657 20 50 20C49.191 20 48.458 20.321 47.918 20.841L47.917 20.84L31.993 36.764L16.275 21.046C15.725 20.406 14.91 20 14 20C12.343 20 11 21.343 11 23C11 23.805 11.318 24.536 11.835 25.075L11.827 25.083L29.827 43.083L29.828 43.082C30.374 43.648 31.139 44 31.987 44C31.989 44 31.991 44 31.994 44C31.996 44 31.998 44 32.001 44C32.85 44 33.613 43.648 34.16 43.082L34.161 43.083L52.161 25.083L52.16 25.082C52.68 24.543 53 23.809 53 23Z" fill="#737A8A"/>
</svg>
