<svg width="64" height="44" viewBox="0 0 64 44" fill="none" xmlns="http://www.w3.org/2000/svg">
<path d="M63.002 0.78C62.471 0.3 61.773 0 61 0H3C2.227 0 1.53 0.3 0.998 0.78L32 25L63.002 0.78ZM0.894 0.866C0.343 1.41 0 2.165 0 3V41C0 41.789 0.311 42.501 0.809 43.037L20.378 19.741L0.894 0.866ZM32 31L23.864 23.119L0.943 43.175C1.481 43.684 2.202 44 3 44H61C61.798 44 62.52 43.684 63.057 43.175L40.137 23.119L32 31ZM63.105 0.866L43.622 19.741L63.191 43.037C63.689 42.502 64 41.789 64 41V3C64 2.165 63.657 1.41 63.105 0.866Z" fill="#737A8A"/>
</svg>
