<svg width="64" height="64" viewBox="0 0 64 64" fill="none" xmlns="http://www.w3.org/2000/svg">
<path d="M62.243 53.758L44.658 36.173C46.768 32.602 48 28.449 48 24C48 10.745 37.255 0 24 0C10.745 0 0 10.745 0 24C0 37.255 10.745 48 24 48C28.449 48 32.602 46.768 36.173 44.658L53.757 62.242C54.843 63.329 56.343 64 58 64C61.314 64 64 61.314 64 58C64 56.343 63.328 54.843 62.243 53.758ZM24 42C14.059 42 6 33.941 6 24C6 14.059 14.059 6 24 6C33.941 6 42 14.059 42 24C42 33.941 33.941 42 24 42Z" fill="#737A8A"/>
</svg>
