<svg width="30" height="31" viewBox="0 0 30 31" fill="none" xmlns="http://www.w3.org/2000/svg">
<path d="M3.53943 0.973112C3.14196 1.24609 2.9858 1.73456 2.98107 2.68997V3.39396H1.49054H0V5.22575V7.05755H1.49054H2.98107V7.75435C2.9858 8.75286 3.13249 9.19105 3.55836 9.46402C3.70978 9.55741 4.04574 9.57178 5.85331 9.57178C7.81704 9.57178 7.98738 9.55741 8.16246 9.43529C8.39432 9.27007 8.57886 8.96836 8.65457 8.6451C8.68297 8.50862 8.70662 8.09916 8.70662 7.7328V7.05755H19.3533H30V5.22575V3.39396H19.358H8.71609L8.69716 2.58222C8.68297 1.66991 8.61672 1.42567 8.29022 1.08805L8.11987 0.915644L5.8959 0.901277C4.23502 0.894093 3.63407 0.90846 3.53943 0.973112Z" fill="#9AA2B5"/>
<path d="M22.0836 11.7339C21.989 11.8129 21.8517 12.0069 21.776 12.1721C21.6577 12.445 21.6483 12.5384 21.6293 13.2855L21.6151 14.0973H10.8076H0V15.8931V17.689H10.8076H21.6151L21.6293 18.5007C21.6483 19.2478 21.6577 19.3412 21.7808 19.6142C21.8517 19.7794 21.9937 19.9806 22.0978 20.0596C22.2823 20.2032 22.3486 20.2032 24.5489 20.1889L26.8155 20.1673L26.9905 19.959C27.2697 19.6429 27.3502 19.2981 27.3502 18.4217V17.689H28.6751H30V15.8931V14.0973H28.6751H27.3502V13.3574C27.3502 12.4881 27.2697 12.1433 26.9905 11.8273L26.8155 11.6189L24.5394 11.6046C22.3438 11.5902 22.2587 11.5902 22.0836 11.7339Z" fill="#9AA2B5"/>
<path d="M7.05521 22.3727C6.92271 22.4733 6.79968 22.6385 6.71451 22.854C6.58675 23.1557 6.57729 23.2204 6.57729 23.9531V24.7289H3.28864H0V26.5607V28.3925H3.28864H6.57729V29.1468C6.57729 30.0519 6.65773 30.3608 6.9653 30.6697L7.16404 30.8708L9.31704 30.8924C11.612 30.9139 11.7114 30.9068 11.9716 30.5763C12.2129 30.2674 12.2697 30.016 12.2934 29.1612L12.317 28.3925H21.1562H30V26.5607V24.7289H21.1514H12.3028V24.1327C12.3028 23.1342 12.142 22.617 11.7634 22.3512C11.5836 22.2291 11.418 22.2147 9.4164 22.2147C7.30126 22.2147 7.25868 22.2147 7.05521 22.3727Z" fill="#9AA2B5"/>
</svg>
