<svg width="64" height="64" viewBox="0 0 64 64" fill="none" xmlns="http://www.w3.org/2000/svg">
<g clip-path="url(#clip0)">
<path d="M46.568 34.581C46.568 34.586 46.568 34.591 46.568 34.596C45.267 34.796 43.939 35.126 42.584 35.074C30.548 34.324 22.711 26.862 22.205 17.952C22.137 15.862 22.512 13.845 23.25 11.966C9.78696 14.332 -0.0400391 23.094 -0.0400391 33.57C-0.0400391 40.532 4.13696 46.747 11.083 50.828C12.656 51.752 12.835 58.689 3.98596 62.878C3.98596 62.878 16.515 64.854 24.459 54.811C26.423 55.093 28.455 55.694 30.534 55.694C45.091 55.694 54.771 48.532 57.31 38.798C54.779 38.739 50.392 38.061 46.92 34.49L46.568 34.581ZM56.721 27.814C61.27 25.141 64.006 21.07 64.006 16.51C64.006 8.45803 55.156 1.93103 43.979 1.93103C32.8 1.93103 25.986 8.45803 25.986 16.51C25.986 24.562 32.799 31.002 43.979 31.002C45.34 31.002 46.671 30.608 47.958 30.423C53.162 37.001 61.369 35.707 61.369 35.707C55.573 32.964 55.689 28.419 56.721 27.814Z" fill="#9AA2B5"/>
</g>
<defs>
<clipPath id="clip0">
<rect width="64" height="64" fill="white"/>
</clipPath>
</defs>
</svg>
