<svg width="64" height="64" viewBox="0 0 64 64" fill="none" xmlns="http://www.w3.org/2000/svg">
<path d="M56 33C56 32.982 55.998 32.967 55.997 32.951C55.996 32.864 55.993 32.777 55.984 32.693C55.982 32.676 55.978 32.662 55.976 32.646C55.966 32.562 55.955 32.477 55.937 32.394C55.937 32.392 55.937 32.391 55.937 32.389C55.814 31.795 55.515 31.266 55.097 30.858L32.126 8.88404C31.582 8.33804 30.831 8.00004 30 8.00004C29.997 8.00004 29.995 8.00104 29.992 8.00104V7.99304H11V8.00004C9.34304 8.00004 8.00004 9.34304 8.00004 11H7.99304V30.049H8.00604C8.02104 30.927 8.41504 31.706 9.02904 32.245L9.01804 32.257L34.018 55.257L34.024 55.252C34.419 55.6 34.903 55.844 35.442 55.945C35.463 55.95 35.487 55.953 35.509 55.956C35.576 55.967 35.643 55.978 35.711 55.984C35.807 55.995 35.902 56 36 56C36.916 56 37.734 55.589 38.284 54.941L38.285 54.943L55.285 34.943L55.284 34.941C55.73 34.418 56 33.741 56 33ZM16 20C13.791 20 12 18.209 12 16C12 13.791 13.791 12 16 12C18.209 12 20 13.791 20 16C20 18.209 18.209 20 16 20Z" fill="#9AA2B5"/>
</svg>
